/* XPM */
static char *cubridmigration[] = {
/* columns rows colors chars-per-pixel */
"32 32 128 2",
"   c #35549F",
".  c #FFD3D5",
"X  c #BD34A7",
"o  c #07E23E",
"O  c #7FEC9A",
"+  c #FFAE09",
"@  c #FF6C19",
"#  c #DEEAF4",
"$  c #D6EDFE",
"%  c #FF6305",
"&  c #FFE6AF",
"*  c #B5F2BF",
"=  c #FF6500",
"-  c #D144B8",
";  c #2B4C9B",
":  c #0596FB",
">  c #B9E0FD",
",  c #F1F4F2",
"<  c #01DB39",
"1  c #FFE09E",
"2  c #FBDBD2",
"3  c #10E73D",
"4  c #FF2B36",
"5  c #FFF6F7",
"6  c #FF424D",
"7  c #1F9DF7",
"8  c #FFB1B2",
"9  c #E2ECF4",
"0  c #3E5AA2",
"q  c #EEF3F1",
"w  c #F5F3FA",
"e  c #FF7225",
"r  c #4B66AB",
"t  c #0694FF",
"y  c #D37DCB",
"u  c #1196F7",
"i  c #FF555E",
"p  c #008FF6",
"a  c #F6F2D5",
"s  c #FFB112",
"d  c #FFDB8F",
"f  c #F1F4E5",
"g  c #16E449",
"h  c #FFB993",
"j  c #E7EBF4",
"k  c #FAFBFD",
"l  c #FFEBEC",
"z  c #FF873E",
"x  c #FFFBFB",
"c  c #FF6404",
"v  c #415EA4",
"b  c #FF4E57",
"n  c #D250BD",
"m  c #F9F8FC",
"M  c #C3E5FD",
"N  c #D8EAF9",
"B  c #DB87CB",
"V  c #15E640",
"C  c #CFE5F8",
"Z  c #E1E6F1",
"A  c #149AFF",
"S  c #DC88CC",
"D  c #EEEBF5",
"F  c #DA81C9",
"G  c #CCD4E7",
"H  c #EAF0F5",
"J  c #9FEEAB",
"K  c #FFE6E7",
"L  c #D275C8",
"P  c #FF8537",
"I  c #FFDF99",
"U  c #244698",
"Y  c #FEFDFC",
"T  c #F3F0CC",
"R  c #F1EFC2",
"E  c #FCFDFE",
"W  c #DBF1FF",
"Q  c #E291D8",
"!  c #FFC2A2",
"~  c #FCDED6",
"^  c #81ED9C",
"/  c #1498F7",
"(  c #C2F8CA",
")  c #F8FAF3",
"_  c #24A3FC",
"`  c #E3EDFC",
"'  c #FF777E",
"]  c #FFD884",
"[  c #FF7E2E",
"{  c #E4E8F2",
"}  c #FFF2D5",
"|  c #F2F8EE",
" . c #7588BA",
".. c #F1CAEA",
"X. c #0692F6",
"o. c #1B3F94",
"O. c #CEE9FD",
"+. c #E6F1FB",
"@. c #8AF3A4",
"#. c #0091FF",
"$. c #314E9B",
"%. c #0094FB",
"&. c #FFBCBF",
"*. c #FFDA89",
"=. c #5B75B2",
"-. c #E4FBEA",
";. c #B1F2BB",
":. c #EFF3E4",
">. c #D77BC6",
",. c #C8E7FF",
"<. c #D6E9F9",
"1. c #FF5059",
"2. c #FFA9AB",
"3. c #F5F2D2",
"4. c #E6A1DC",
"5. c #F3F5F9",
"6. c #FFDFE1",
"7. c #FFDC90",
"8. c #FCDED8",
"9. c #F5F7FA",
"0. c #C0E3FD",
"q. c #C4E5FD",
"w. c #FF4853",
"e. c #F8F7FB",
"r. c #002887",
"t. c #00D936",
"y. c #FFAE00",
"u. c None",
/* pixels */
"u.u.u.u.u.u.u.u.u.u.u.u.u.u.u.9.G u.u.u.u.u.u.u.u.u.u.u.u.u.u.u.",
"u.u.u.u.u.u.u.u.u.u.u.u.u.u.u.5.=.Z u.u.u.u.u.u.u.u.u.u.u.u.u.u.",
"u.u.u.u.u.u.u.u.u.u.u.u.u.u.u.k o.; j u.u.u.u.u.u.u.u.u.u.u.u.u.",
"u.u.u.u.u.u.u.u.u.u.u.u.u.u.u.k ; r.  j u.u.u.u.u.u.u.u.u.u.u.u.",
"u.u.u.u.u.u.u.u.u.u.u.u.u.u.u.k ; r.r.  j u.u.u.u.u.u.u.u.u.u.u.",
"u.u.u.u.u.u.u.u.u.u.u.u.u.u.u.k ; r.r.r.  j u.u.u.u.u.u.u.u.u.u.",
"u.u.u.u.u.u.u.u.u.u.u.u.u.u.u.k U r.r.r.r.  { u.u.u.u.u.u.u.u.u.",
"u.u.u.u.u.u.u.u.u.u.u.u.u.u.u.E r r.r.r.r.r.r u.u.u.u.u.u.u.u.u.",
"u.} 1 1 1 1 1 1 1 1 1 1 1 I & u.w 0 r.r.r.r.$.u.u.u.u.u.u.u.u.u.",
"u.*.y.y.y.y.y.y.y.y.y.y.y.+ R Y 4.w v r.r.r.  +.W u.u.u.u.u.u.u.",
"u.d y.y.y.y.y.y.y.y.y.y.s 3.( q - F m v r.r.0 C _ $ u.u.u.u.u.u.",
"u.d y.y.y.y.y.y.y.y.y.s a ;.3 q n X B m v r.0 N %.7 $ u.u.u.u.u.",
"u.d y.y.y.y.y.y.y.y.s a * < 3 , n X X B m   ; N : p 7 $ u.u.u.u.",
"u.d y.y.y.y.y.y.y.s a * < t.V , n X X X S D  .C : p p 7 $ u.u.u.",
"u.d y.y.y.y.y.y.s a * < t.t.V , - X X X X >.e.<.: p p p 7 O.u.u.",
"u.d y.y.y.y.y.s a * < t.t.t.V , Q y y y y L ..` : p p p p / q.u.",
"u.d y.y.y.y.s a * < t.t.t.t.g | 8.2 2 2 2 2 ~ # t p p p p X.> u.",
"u.d y.y.y.s a * < t.t.t.t.t.g f @ = = = = = P 9 t p p p u > u.u.",
"u.d y.y.s a * < t.t.t.t.t.t.g f e % % % % % z 9 t p p u M u.u.u.",
"u.7.y.s a * < t.t.t.t.t.t.t.g f e % % % % % z 9 t p u M u.u.u.u.",
"u.] + a * < t.t.t.t.t.t.t.t.g f e % % % % % z 9 #.u M u.u.u.u.u.",
"u.& T * < t.t.t.t.t.t.t.t.t.g f e % % % % % z # A 0.u.u.u.u.u.u.",
"u.Y J < t.t.t.t.t.t.t.t.t.t.o :.@ c c c c c [ H ,.u.u.u.u.u.u.u.",
"u.-.^ O O O O O O O O O O O @.) ! h h h h h ! u.u.u.u.u.u.u.u.u.",
"u.u.u.u.u.u.u.u.u.u.u.u.u.u.u.u.&.8 8 8 8 2.. u.u.u.u.u.u.u.u.u.",
"u.u.u.u.u.u.u.u.u.u.u.u.u.u.u.x 6 4 4 4 4 w.6.u.u.u.u.u.u.u.u.u.",
"u.u.u.u.u.u.u.u.u.u.u.u.u.u.u.x b 4 4 4 i l u.u.u.u.u.u.u.u.u.u.",
"u.u.u.u.u.u.u.u.u.u.u.u.u.u.u.x b 4 4 i l u.u.u.u.u.u.u.u.u.u.u.",
"u.u.u.u.u.u.u.u.u.u.u.u.u.u.u.x b 4 i l u.u.u.u.u.u.u.u.u.u.u.u.",
"u.u.u.u.u.u.u.u.u.u.u.u.u.u.u.x 6 1.l u.u.u.u.u.u.u.u.u.u.u.u.u.",
"u.u.u.u.u.u.u.u.u.u.u.u.u.u.u.5 ' K u.u.u.u.u.u.u.u.u.u.u.u.u.u.",
"u.u.u.u.u.u.u.u.u.u.u.u.u.u.u.5 . u.u.u.u.u.u.u.u.u.u.u.u.u.u.u."
};
